<?xml version="1.0" encoding="UTF-8"?>
<svg width="55px" height="16px" viewBox="0 0 55 16" version="1.1" xmlns="http://www.w3.org/2000/svg" xmlns:xlink="http://www.w3.org/1999/xlink">
    <!-- Generator: Sketch 48.2 (47327) - http://www.bohemiancoding.com/sketch -->
    <title></title>
    <desc>Created with Sketch.</desc>
    <defs></defs>
    <g id="UCL_Home_dtop_v1.1" stroke="none" stroke-width="1" fill="none" fill-rule="evenodd" transform="translate(-855.000000, -884.000000)">
        <g id="Module_announcement" transform="translate(825.000000, 728.000000)" fill="#FFFFFF">
            <path d="M84.7142857,163.654975 C84.7142857,163.842476 84.6473221,164.003189 84.5133929,164.137118 L76.7991071,171.248725 C76.5848204,171.436226 76.3504477,171.476404 76.0959821,171.369261 C75.8415166,171.248724 75.7142857,171.05453 75.7142857,170.786671 L75.7142857,166.286671 L30.6428571,166.286671 C30.4553562,166.286671 30.3013399,166.226404 30.1808036,166.105868 C30.0602673,165.985331 30,165.831315 30,165.643814 L30,161.786671 C30,161.59917 30.0602673,161.445154 30.1808036,161.324618 C30.3013399,161.204081 30.4553562,161.143814 30.6428571,161.143814 L75.7142857,161.143814 L75.7142857,156.643814 C75.7142857,156.362563 75.8415166,156.168368 76.0959821,156.061225 C76.3504477,155.954082 76.5848204,155.987563 76.7991071,156.161671 L84.5133929,163.192921 C84.6473221,163.326851 84.7142857,163.480867 84.7142857,163.654975 Z" id=""></path>
        </g>
    </g>
</svg>