<?xml version="1.0" encoding="UTF-8"?>
<svg width="41px" height="41px" viewBox="0 0 41 41" version="1.1" xmlns="http://www.w3.org/2000/svg" xmlns:xlink="http://www.w3.org/1999/xlink">
    <!-- Generator: Sketch 48.2 (47327) - http://www.bohemiancoding.com/sketch -->
    <title>btn_over</title>
    <desc>Created with Sketch.</desc>
    <defs></defs>
    <g id="UCL_Home_dtop_v1.1" stroke="none" stroke-width="1" fill="none" fill-rule="evenodd" transform="translate(-162.000000, -1793.000000)">
        <g id="Module_Study" transform="translate(142.000000, 1605.000000)">
            <g id="Hero-vid1" transform="translate(0.000000, 75.000000)">
                <g id="Group">
                    <g id="btn_over" transform="translate(20.000000, 113.000000)">
                        <path d="M41,20.5 C41,24.2192026 40.0835595,27.6491813 38.250651,30.7900391 C36.4177426,33.9308968 33.9308968,36.4177426 30.7900391,38.250651 C27.6491813,40.0835595 24.2192026,41 20.5,41 C16.7807974,41 13.3508187,40.0835595 10.2099609,38.250651 C7.06910322,36.4177426 4.58225743,33.9308968 2.74934896,30.7900391 C0.916440488,27.6491813 0,24.2192026 0,20.5 C0,16.7807974 0.916440488,13.3508187 2.74934896,10.2099609 C4.58225743,7.06910322 7.06910322,4.58225743 10.2099609,2.74934896 C13.3508187,0.916440488 16.7807974,0 20.5,0 C24.2192026,0 27.6491813,0.916440488 30.7900391,2.74934896 C33.9308968,4.58225743 36.4177426,7.06910322 38.250651,10.2099609 C40.0835595,13.3508187 41,16.7807974 41,20.5 Z" id="Path" fill="#FFFFFF"></path>
                        <path d="M37.0138889,20.5 C37.0138889,17.5048189 36.2752235,14.7424129 34.7978707,12.2126991 C33.3205179,9.68298538 31.3170146,7.67948213 28.7873009,6.20212929 C26.2575871,4.72477645 23.4951811,3.98611111 20.5,3.98611111 C17.5048189,3.98611111 14.7424129,4.72477645 12.2126991,6.20212929 C9.68298538,7.67948213 7.67948213,9.68298538 6.20212929,12.2126991 C4.72477645,14.7424129 3.98611111,17.5048189 3.98611111,20.5 C3.98611111,23.4951811 4.72477645,26.2575871 6.20212929,28.7873009 C7.67948213,31.3170146 9.68298538,33.3205179 12.2126991,34.7978707 C14.7424129,36.2752235 17.5048189,37.0138889 20.5,37.0138889 C23.4951811,37.0138889 26.2575871,36.2752235 28.7873009,34.7978707 C31.3170146,33.3205179 33.3205179,31.3170146 34.7978707,28.7873009 C36.2752235,26.2575871 37.0138889,23.4951811 37.0138889,20.5 Z" id="Path" fill="#FFFFFF"></path>
                        <polygon id="Path" fill="#EA7600" points="27.9027778 20.6423611 15.9444444 27.6180556 15.9444444 13.6666667"></polygon>
                    </g>
                </g>
            </g>
        </g>
    </g>
</svg>