<?xml version="1.0" encoding="UTF-8"?>
<svg width="41px" height="41px" viewBox="0 0 41 41" version="1.1" xmlns="http://www.w3.org/2000/svg" xmlns:xlink="http://www.w3.org/1999/xlink">
    <!-- Generator: Sketch 48.2 (47327) - http://www.bohemiancoding.com/sketch -->
    <title>btn_over</title>
    <desc>Created with Sketch.</desc>
    <defs></defs>
    <g id="UCL_Home_dtop_v1.1" stroke="none" stroke-width="1" fill="none" fill-rule="evenodd" transform="translate(-162.000000, -1759.000000)">
        <g id="Module_Study" transform="translate(142.000000, 1605.000000)" fill="#FFFFFF">
            <g id="Hero-vid1" transform="translate(0.000000, 75.000000)">
                <g id="Group">
                    <g id="btn_over" transform="translate(20.000000, 79.000000)">
                        <path d="M41,20.5 C41,24.2192026 40.0835595,27.6491813 38.250651,30.7900391 C36.4177426,33.9308968 33.9308968,36.4177426 30.7900391,38.250651 C27.6491813,40.0835595 24.2192026,41 20.5,41 C16.7807974,41 13.3508187,40.0835595 10.2099609,38.250651 C7.06910322,36.4177426 4.58225743,33.9308968 2.74934896,30.7900391 C0.916440488,27.6491813 0,24.2192026 0,20.5 C0,16.7807974 0.916440488,13.3508187 2.74934896,10.2099609 C4.58225743,7.06910322 7.06910322,4.58225743 10.2099609,2.74934896 C13.3508187,0.916440488 16.7807974,0 20.5,0 C24.2192026,0 27.6491813,0.916440488 30.7900391,2.74934896 C33.9308968,4.58225743 36.4177426,7.06910322 38.250651,10.2099609 C40.0835595,13.3508187 41,16.7807974 41,20.5 Z M27.9027778,20.6423611 L15.9444444,13.6666667 L15.9444444,27.6180556 L27.9027778,20.6423611 Z" id="Path"></path>
                    </g>
                </g>
            </g>
        </g>
    </g>
</svg>