<?xml version="1.0" encoding="UTF-8"?>
<svg width="41px" height="41px" viewBox="0 0 41 41" version="1.1" xmlns="http://www.w3.org/2000/svg" xmlns:xlink="http://www.w3.org/1999/xlink">
    <!-- Generator: Sketch 48.2 (47327) - http://www.bohemiancoding.com/sketch -->
    <title>Video_play</title>
    <desc>Created with Sketch.</desc>
    <defs></defs>
    <g id="UCL_Home_dtop_v1.1" stroke="none" stroke-width="1" fill="none" fill-rule="evenodd" transform="translate(-1040.000000, -1793.000000)">
        <g id="Module_Study" transform="translate(142.000000, 1605.000000)" fill="#FFFFFF">
            <g id="Hero-vid2" transform="translate(878.000000, 75.000000)">
                <g id="Group">
                    <path d="M57.0138889,133.5 C57.0138889,130.504819 56.2752235,127.742413 54.7978707,125.212699 C53.3205179,122.682985 51.3170146,120.679482 48.7873009,119.202129 C46.2575871,117.724776 43.4951811,116.986111 40.5,116.986111 C37.5048189,116.986111 34.7424129,117.724776 32.2126991,119.202129 C29.6829854,120.679482 27.6794821,122.682985 26.2021293,125.212699 C24.7247765,127.742413 23.9861111,130.504819 23.9861111,133.5 C23.9861111,136.495181 24.7247765,139.257587 26.2021293,141.787301 C27.6794821,144.317015 29.6829854,146.320518 32.2126991,147.797871 C34.7424129,149.275224 37.5048189,150.013889 40.5,150.013889 C43.4951811,150.013889 46.2575871,149.275224 48.7873009,147.797871 C51.3170146,146.320518 53.3205179,144.317015 54.7978707,141.787301 C56.2752235,139.257587 57.0138889,136.495181 57.0138889,133.5 Z M61,133.5 C61,137.219203 60.0835595,140.649181 58.250651,143.790039 C56.4177426,146.930897 53.9308968,149.417743 50.7900391,151.250651 C47.6491813,153.08356 44.2192026,154 40.5,154 C36.7807974,154 33.3508187,153.08356 30.2099609,151.250651 C27.0691032,149.417743 24.5822574,146.930897 22.749349,143.790039 C20.9164405,140.649181 20,137.219203 20,133.5 C20,129.780797 20.9164405,126.350819 22.749349,123.209961 C24.5822574,120.069103 27.0691032,117.582257 30.2099609,115.749349 C33.3508187,113.91644 36.7807974,113 40.5,113 C44.2192026,113 47.6491813,113.91644 50.7900391,115.749349 C53.9308968,117.582257 56.4177426,120.069103 58.250651,123.209961 C60.0835595,126.350819 61,129.780797 61,133.5 Z M47.9027778,133.642361 L35.9444444,140.618056 L35.9444444,126.666667 L47.9027778,133.642361 Z" id="Video_play"></path>
                </g>
            </g>
        </g>
    </g>
</svg>